<?xml version="1.0" encoding="UTF-8" standalone="no"?>
<!-- Created with Inkscape (http://www.inkscape.org/) -->

<svg
   width="30.452576mm"
   height="32.06218mm"
   viewBox="0 0 30.452576 32.06218"
   version="1.1"
   id="svg1"
   sodipodi:docname="favicon.svg"
   inkscape:version="1.3 (0e150ed, 2023-07-21)"
   xmlns:inkscape="http://www.inkscape.org/namespaces/inkscape"
   xmlns:sodipodi="http://sodipodi.sourceforge.net/DTD/sodipodi-0.dtd"
   xmlns="http://www.w3.org/2000/svg"
   xmlns:svg="http://www.w3.org/2000/svg">
  <sodipodi:namedview
     id="namedview1"
     pagecolor="#ffffff"
     bordercolor="#000000"
     borderopacity="0.25"
     inkscape:showpageshadow="2"
     inkscape:pageopacity="0.0"
     inkscape:pagecheckerboard="0"
     inkscape:deskcolor="#d1d1d1"
     inkscape:document-units="mm"
     showgrid="false"
     inkscape:zoom="7.3523"
     inkscape:cx="57.533017"
     inkscape:cy="60.66129"
     inkscape:window-width="2560"
     inkscape:window-height="1387"
     inkscape:window-x="0"
     inkscape:window-y="25"
     inkscape:window-maximized="1"
     inkscape:current-layer="layer1" />
  <defs
     id="defs1" />
  <g
     inkscape:label="Layer 1"
     inkscape:groupmode="layer"
     id="layer1"
     transform="translate(-89.958333,-132.55625)">
    <rect
       style="fill:#ffffff;stroke:#ffffff;stroke-width:0.226438"
       id="rect1"
       width="30.226561"
       height="31.835562"
       x="90.071342"
       y="132.66956" />
    <path
       style="font-size:53.1687px;font-family:'DejaVu Sans Mono for Powerline';-inkscape-font-specification:'DejaVu Sans Mono for Powerline, Normal';font-variation-settings:'wght' 900;letter-spacing:-0.9167px;fill:#0044cc;stroke-width:0.430569"
       d="m 103.46528,133.62544 q 0.85358,-0.0976 1.70715,-0.0976 0.87796,0 1.73153,0.0976 l 0.63409,3.12163 q 1.3901,0.26826 2.70704,0.87796 l 2.24368,-2.07296 q 1.51204,0.90235 2.7802,2.17051 l -1.21939,2.65827 q 0.97551,1.04867 1.65838,2.29245 l 2.73142,-0.31704 q 0.73164,1.68276 1.04867,3.48746 l -2.31683,1.29254 q 0.0975,0.73164 0.0975,1.43889 0,0.70725 -0.0975,1.41448 l 2.31683,1.31695 q -0.31703,1.8047 -1.04867,3.48745 l -2.73142,-0.31704 q -0.68287,1.24377 -1.65838,2.29245 l 1.21939,2.65827 q -1.26816,1.26817 -2.7802,2.17051 l -2.24368,-2.04857 q -1.31694,0.58531 -2.70704,0.87796 l -0.63409,3.09724 q -0.85357,0.12195 -1.73153,0.12195 -0.85357,0 -1.70715,-0.12195 l -0.63408,-3.09724 q -1.41449,-0.29265 -2.70704,-0.87796 l -2.243678,2.04857 q -1.512042,-0.90234 -2.780207,-2.17051 l 1.219389,-2.65827 q -0.975511,-1.04868 -1.658369,-2.29245 l -2.731431,0.31704 q -0.731633,-1.68275 -1.048675,-3.48745 l 2.31684,-1.31695 q -0.09755,-0.70723 -0.09755,-1.41448 0,-0.70725 0.09755,-1.43889 l -2.31684,-1.29254 q 0.317042,-1.8047 1.048675,-3.48746 l 2.731431,0.31704 q 0.682858,-1.24378 1.658369,-2.31683 l -1.219389,-2.63389 q 1.268165,-1.26816 2.780207,-2.17051 l 2.243678,2.04857 q 1.29255,-0.58531 2.70704,-0.85357 z m 7.85287,8.80399 q -2.53633,-2.56072 -6.14572,-2.56072 -3.58501,0 -6.145722,2.56072 -2.536329,2.56071 -2.536329,6.1701 0,3.58501 2.536329,6.12134 2.560712,2.53633 6.145722,2.53633 3.60939,0 6.14572,-2.53633 2.56072,-2.53633 2.56072,-6.12134 0,-3.60939 -2.56072,-6.1701 z m -3.85327,3.87765 q 0.95112,0.92674 0.95112,2.26807 0,1.34132 -0.95112,2.29245 -0.95113,0.92673 -2.29245,0.92673 -1.31694,0 -2.26807,-0.92673 -0.95112,-0.95113 -0.95112,-2.29245 0,-1.34133 0.95112,-2.26807 0.95113,-0.95112 2.26807,-0.95112 1.34132,0 2.29245,0.95112 z"
       id="text2"
       aria-label="⚙" />
  </g>
</svg>
